<svg width="150" height="151" viewBox="0 0 150 151" fill="none" xmlns="http://www.w3.org/2000/svg">
<path d="M43.9063 74.4062L49.0625 63.7812C50.1042 61.5938 51.6417 59.875 53.675 58.625C55.7083 57.375 57.9208 56.75 60.3125 56.75H68.75V13H112.5L106.25 25.5L112.5 38H81.25V56.75H89.2187C91.6146 56.75 93.7771 57.375 95.7062 58.625C97.6354 59.875 99.1708 61.5417 100.312 63.625L105.781 74.5625L87.0313 87.0625L75 80.9688L62.9687 87.0625L43.9063 74.4062ZM12.5 138L38.2812 85.6562L62.0313 101.437L75 95.0312L87.9687 101.437L111.406 85.9688L137.5 138H12.5Z" fill="#F75590"/>
</svg>
