<svg width="150" height="150" viewBox="0 0 150 150" fill="none" xmlns="http://www.w3.org/2000/svg">
<path d="M79.7125 14.4063C79.7125 13.163 79.2186 11.9708 78.3396 11.0917C77.4605 10.2126 76.2682 9.71875 75.025 9.71875C73.7818 9.71875 72.5895 10.2126 71.7104 11.0917C70.8314 11.9708 70.3375 13.163 70.3375 14.4063V23.6563C70.3375 24.8995 70.8314 26.0917 71.7104 26.9708C72.5895 27.8499 73.7818 28.3438 75.025 28.3438C76.2682 28.3438 77.4605 27.8499 78.3396 26.9708C79.2186 26.0917 79.7125 24.8995 79.7125 23.6563V14.4063ZM111.656 64.3437C110.354 59.2792 107.989 54.5495 104.719 50.4687C101.477 46.3594 97.4103 42.9743 92.7813 40.5313C88.1636 38.1074 83.1043 36.6406 77.9063 36.2188C72.6935 35.8271 67.4565 36.5296 62.5313 38.2813C57.5787 40.0082 53.0436 42.7548 49.2187 46.3438C45.435 49.872 42.3961 54.1222 40.2813 58.8438C38.2144 63.6379 37.1713 68.8108 37.2187 74.0312C37.0739 80.061 38.364 86.0388 40.9828 91.472C43.6017 96.9053 47.4742 101.638 52.2812 105.281L54.4688 107.344C56.3438 109.281 56.3438 109.281 56.2813 113.594V115.594C56.206 116.977 56.4189 118.36 56.9062 119.656C57.3437 121.044 58.1188 122.313 59.1563 123.344C59.6313 123.831 60.1521 124.269 60.7188 124.656V130.906C60.6159 132.04 60.7383 133.182 61.0791 134.268C61.4199 135.354 61.9722 136.362 62.7042 137.233C63.4363 138.105 64.3336 138.823 65.3444 139.346C66.3552 139.869 67.4595 140.187 68.5938 140.281H81.0938C83.3894 140.09 85.5152 138.995 87.0037 137.237C88.4922 135.479 89.2215 133.202 89.0312 130.906V124.656C89.5955 124.273 90.119 123.833 90.5937 123.344C91.575 122.306 92.325 121.069 92.7813 119.719C93.2601 118.399 93.4726 116.997 93.4062 115.594V113.281C93.4062 109.844 93.4063 109.844 95.3438 107.656L97.7188 105.469C105.732 99.2368 110.964 90.0966 112.281 80.0312C113.201 74.8178 112.988 69.4674 111.656 64.3437ZM79.9688 130.781H70.0938V126.844H79.9688V130.781ZM75.0313 64.7812C72.9924 64.7812 71.0371 65.5912 69.5954 67.0329C68.1537 68.4746 67.3437 70.4299 67.3437 72.4687C67.3437 74.1264 66.6853 75.7161 65.5132 76.8882C64.3411 78.0603 62.7514 78.7187 61.0937 78.7187C59.4361 78.7187 57.8464 78.0603 56.6743 76.8882C55.5022 75.7161 54.8437 74.1264 54.8437 72.4687C54.8271 69.8131 55.338 67.1805 56.3466 64.7237C57.3553 62.267 58.8416 60.0349 60.7195 58.157C62.5974 56.2791 64.8295 54.7928 67.2862 53.7841C69.743 52.7755 72.3756 52.2647 75.0313 52.2812C76.6889 52.2812 78.2786 52.9397 79.4507 54.1118C80.6228 55.2839 81.2813 56.8736 81.2813 58.5312C81.2813 60.1889 80.6228 61.7786 79.4507 62.9507C78.2786 64.1228 76.6889 64.7812 75.0313 64.7812ZM132.281 80.4062H120.844C119.601 80.4062 118.408 79.9124 117.529 79.0333C116.65 78.1542 116.156 76.9619 116.156 75.7187C116.156 74.4755 116.65 73.2833 117.529 72.4042C118.408 71.5251 119.601 71.0312 120.844 71.0312H132.281C133.524 71.0312 134.717 71.5251 135.596 72.4042C136.475 73.2833 136.969 74.4755 136.969 75.7187C136.969 76.9619 136.475 78.1542 135.596 79.0333C134.717 79.9124 133.524 80.4062 132.281 80.4062ZM109.281 42.8438C108.665 42.8467 108.055 42.7265 107.486 42.4904C106.917 42.2543 106.402 41.907 105.969 41.4688C105.091 40.5898 104.598 39.3984 104.598 38.1563C104.598 36.9141 105.091 35.7227 105.969 34.8437L114.094 26.7188C114.982 25.8908 116.158 25.44 117.372 25.4614C118.586 25.4828 119.745 25.9748 120.604 26.8336C121.463 27.6924 121.955 28.8511 121.976 30.0655C121.998 31.2799 121.547 32.4552 120.719 33.3438L112.594 41.4688C112.163 41.9098 111.648 42.2591 111.078 42.4954C110.509 42.7317 109.898 42.8502 109.281 42.8438ZM123.656 120.594C122.42 120.561 121.24 120.071 120.344 119.219L112.219 111.094C111.67 110.549 111.264 109.878 111.037 109.138C110.81 108.399 110.77 107.615 110.92 106.857C111.07 106.098 111.405 105.389 111.895 104.791C112.386 104.193 113.016 103.726 113.731 103.431C114.589 103.07 115.536 102.975 116.448 103.16C117.36 103.346 118.195 103.801 118.844 104.469L126.969 112.594C127.411 113.025 127.762 113.54 128.002 114.109C128.242 114.678 128.366 115.289 128.366 115.906C128.366 116.524 128.242 117.135 128.002 117.704C127.762 118.273 127.411 118.788 126.969 119.219C126.091 120.098 124.899 120.593 123.656 120.594ZM40.8437 42.8438C39.601 42.8427 38.4095 42.3481 37.5313 41.4688L29.4062 33.3438C28.5277 32.4569 28.0375 31.2574 28.0433 30.0092C28.0492 28.7609 28.5507 27.566 29.4375 26.6875C30.3243 25.809 31.5238 25.3187 32.7721 25.3246C34.0204 25.3304 35.2152 25.8319 36.0938 26.7188L44.1563 34.8437C44.811 35.4993 45.2568 36.3342 45.4373 37.2429C45.6178 38.1516 45.525 39.0935 45.1705 39.9495C44.8161 40.8055 44.2159 41.5373 43.4458 42.0525C42.6757 42.5676 41.7702 42.8429 40.8437 42.8438ZM26.5312 120.594C25.9133 120.612 25.2986 120.498 24.7276 120.261C24.1567 120.024 23.6424 119.669 23.2187 119.219C22.3409 118.34 21.8479 117.148 21.8479 115.906C21.8479 114.664 22.3409 113.473 23.2187 112.594L31.3437 104.469C32.2323 103.641 33.4076 103.19 34.622 103.211C35.8364 103.233 36.9951 103.725 37.8539 104.584C38.7127 105.442 39.2047 106.601 39.2261 107.815C39.2475 109.03 38.7967 110.205 37.9687 111.094L29.9062 119.281C28.9848 120.125 27.7807 120.593 26.5312 120.594ZM29.1562 80.4062H17.7188C16.4755 80.4062 15.2833 79.9124 14.4042 79.0333C13.5251 78.1542 13.0312 76.9619 13.0312 75.7187C13.0312 74.4755 13.5251 73.2833 14.4042 72.4042C15.2833 71.5251 16.4755 71.0312 17.7188 71.0312H29.1562C30.3995 71.0312 31.5917 71.5251 32.4708 72.4042C33.3499 73.2833 33.8437 74.4755 33.8437 75.7187C33.8437 76.9619 33.3499 78.1542 32.4708 79.0333C31.5917 79.9124 30.3995 80.4062 29.1562 80.4062Z" fill="#F75590"/>
</svg>
